<svg width="1724" height="601" viewBox="0 0 1724 601" fill="none" xmlns="http://www.w3.org/2000/svg">
<path id="Wave" fill-rule="evenodd" clip-rule="evenodd" d="M1456.33 141.382C1449.35 164.503 1442.07 188.546 1434.51 211.884C1419.38 258.547 1403.11 302.44 1385.77 330.553C1378.84 341.788 1372.91 349.375 1367.85 353.858C1365.32 356.098 1362.96 357.599 1360.77 358.378C1358.55 359.168 1356.46 359.223 1354.57 358.542C1352.72 357.875 1351.16 356.537 1349.83 354.704C1348.5 352.865 1347.37 350.473 1346.41 347.618C1344.48 341.907 1343.22 334.261 1342.49 325.278C1339.55 289.402 1345.02 231.827 1350.97 189.663C1348.73 187.306 1345.98 185.7 1342.78 185.118C1339.53 184.526 1335.68 184.973 1331.23 186.928C1322.3 190.858 1311.17 200.79 1298.17 219.921C1272.19 258.146 1238.93 332.762 1200.63 468.259L1200.62 468.282L1200.61 468.306C1183.23 509.274 1170.46 538.43 1161.22 558.322C1156.6 568.268 1152.87 575.902 1149.88 581.54C1146.9 587.167 1144.65 590.835 1143 592.829C1142.59 593.329 1142.2 593.737 1141.84 594.047C1141.49 594.35 1141.12 594.598 1140.73 594.732C1140.3 594.879 1139.81 594.894 1139.37 594.673C1139 594.485 1138.78 594.175 1138.64 593.869C1138.35 593.245 1138.21 592.293 1138.18 591.104C1138.15 589.9 1138.22 588.399 1138.39 586.647C1139.03 579.647 1141.08 568.48 1143.46 555.725L1143.84 553.693C1148.54 528.501 1154.27 497.763 1153.19 480.231C1152.91 475.727 1152.18 472.149 1150.91 469.773C1150.28 468.585 1149.53 467.74 1148.68 467.221C1147.86 466.717 1146.92 466.503 1145.81 466.606C1144.66 466.712 1143.29 467.156 1141.65 468.043C1140.03 468.928 1138.18 470.229 1136.11 472.001C1131.96 475.543 1126.95 480.917 1120.94 488.454C1108.89 503.554 1099.14 513.062 1091.16 517.731C1087.17 520.067 1083.54 521.241 1080.23 521.232C1076.89 521.224 1074.02 520.011 1071.57 517.82C1069.13 515.639 1067.06 512.462 1065.28 508.432C1063.5 504.395 1061.99 499.469 1060.69 493.764C1058.08 482.355 1056.27 467.786 1054.76 450.901C1053.57 437.615 1052.55 422.889 1051.47 407.128C1047.04 342.736 1041.42 261.064 1017.56 189.649C1011.63 171.871 1005.47 160.096 999.23 153.329C996.111 149.946 993.01 147.86 989.965 146.875C986.953 145.9 983.931 145.983 980.857 147.036C977.755 148.099 974.588 150.157 971.379 153.15C968.175 156.138 964.962 160.027 961.755 164.711C955.341 174.078 948.986 186.573 942.796 201.266C919.364 256.891 898.402 343.769 885.464 410.902C884.73 414.708 884.023 418.451 883.342 422.121L882.662 422.054L882.661 422.054L881.981 421.979C882.739 418.346 883.455 414.581 884.102 410.768C885.357 404.254 886.688 397.554 888.089 390.714C888.26 388.706 888.396 386.727 888.493 384.79C888.791 378.846 888.725 373.286 888.166 368.492C887.608 363.705 886.554 359.646 884.851 356.724C883.154 353.814 880.721 351.893 877.318 351.695C873.987 351.502 870.037 352.991 865.385 356.264C856.041 362.836 843.279 377.028 826.088 401.783C815.343 417.255 806.86 426.856 800.191 431.543C796.849 433.892 794.073 434.928 791.786 434.952C789.563 434.976 787.585 434.039 785.816 432.019C784.041 429.991 782.552 426.949 781.321 422.961C780.092 418.982 779.131 414.1 778.385 408.418C776.891 397.054 776.26 382.535 776.044 365.735C775.851 350.742 775.989 333.936 776.136 315.948C776.648 253.35 777.278 176.438 764.499 111.785C760.386 90.9766 755.427 76.62 749.8 67.7178C746.987 63.2678 743.981 60.1381 740.78 58.2543C737.552 56.3551 734.125 55.7254 730.573 56.2899C727.061 56.8479 723.513 58.5591 719.951 61.2056C716.382 63.857 712.75 67.4836 709.077 71.9408C701.731 80.856 694.169 93.158 686.592 107.796C656.283 166.344 625.554 262.596 607.381 330.251C600.117 357.29 591.49 375.118 582.328 386.152C573.169 397.184 563.557 401.338 554.325 401.257C545.033 401.176 535.848 396.811 527.561 390.329C519.33 383.891 512.088 375.445 506.635 367.322C507.448 346.294 507.392 322.283 505.781 300.338C504.167 278.363 500.99 258.414 495.538 245.609C492.821 239.229 489.495 234.508 485.383 232.246C483.297 231.098 480.997 230.577 478.498 230.806C476.021 231.034 473.429 231.993 470.714 233.692C465.295 237.082 459.201 243.537 452.326 253.621C445.442 263.719 437.744 277.505 429.143 295.606C407.652 340.835 393.601 367.716 384.721 381.532C382.502 384.985 380.613 387.611 379.019 389.498C377.408 391.405 376.147 392.497 375.207 392.956C374.747 393.181 374.454 393.209 374.282 393.187C374.122 393.167 373.909 393.082 373.668 392.805C373.16 392.221 372.778 391.066 372.57 389.312C372.161 385.851 372.467 380.431 373.221 373.681C373.974 366.94 375.169 358.906 376.526 350.23C376.977 347.346 377.446 344.391 377.922 341.389C380.309 326.342 382.882 310.127 384.326 295.807C387.785 261.5 387.806 251.367 381.474 238.658C379.359 234.414 376.529 229.871 372.895 224.037C371.122 221.189 369.156 218.034 366.989 214.456C360.37 203.527 351.831 188.599 341.02 166.312C336.687 157.379 332.604 151.325 328.744 147.736C326.813 145.941 324.904 144.729 323.002 144.097C321.077 143.458 319.183 143.423 317.366 143.95C315.576 144.47 313.913 145.52 312.364 146.979C310.811 148.44 309.34 150.342 307.943 152.612C305.15 157.151 302.617 163.227 300.329 170.362C291.183 198.885 285.845 244.682 283.728 278.175C281.521 287.255 278.4 296.944 274.6 304.729C272.697 308.627 270.632 312.031 268.44 314.637C266.234 317.259 263.959 319.001 261.68 319.687C260.559 320.024 259.434 320.107 258.288 319.912C257.134 319.717 255.914 319.232 254.634 318.381C252.059 316.67 249.334 313.542 246.518 308.613C240.891 298.768 235.014 281.951 229.132 255.599L229.131 255.597C226.186 242.706 223.061 233.122 219.812 226.36C218.188 222.978 216.526 220.289 214.829 218.24C213.136 216.196 211.384 214.759 209.561 213.92C207.716 213.07 205.812 212.84 203.898 213.198C202.013 213.551 200.185 214.462 198.418 215.798C194.889 218.466 191.422 222.969 188.058 228.749C174.649 251.786 162.397 295.995 155.175 329.847H0V330.848H156.353L156.443 330.424C163.655 296.511 175.933 252.144 189.323 229.14C192.673 223.385 196.061 219.024 199.408 216.493C201.078 215.23 202.694 214.457 204.24 214.168C205.759 213.884 207.276 214.052 208.827 214.766C210.399 215.491 212.017 216.783 213.652 218.758C215.284 220.728 216.909 223.348 218.515 226.691C221.726 233.375 224.836 242.894 227.775 255.76C233.661 282.127 239.558 299.04 245.248 308.998C248.09 313.971 250.909 317.262 253.707 319.121C255.113 320.056 256.537 320.644 257.976 320.888C259.423 321.133 260.841 321.023 262.205 320.613C264.897 319.803 267.363 317.834 269.612 315.161C271.874 312.472 273.976 308.996 275.895 305.064C279.734 297.198 282.875 287.436 285.09 278.318L285.097 278.286L285.099 278.253C287.215 244.765 292.549 199.026 301.668 170.589C303.948 163.481 306.457 157.476 309.198 153.021C310.568 150.794 311.988 148.969 313.451 147.592C314.918 146.211 316.397 145.31 317.875 144.881C319.327 144.459 320.831 144.477 322.432 145.009C324.057 145.549 325.804 146.626 327.662 148.354C331.38 151.811 335.404 157.739 339.724 166.646C350.548 188.959 359.099 203.911 365.731 214.86C367.92 218.474 369.896 221.645 371.673 224.499C375.29 230.305 378.085 234.793 380.182 239C386.397 251.473 386.418 261.386 382.955 295.733C381.513 310.03 378.945 326.218 376.558 341.265C376.081 344.269 375.612 347.228 375.16 350.117C373.803 358.793 372.606 366.841 371.851 373.6C371.097 380.348 370.781 385.844 371.201 389.398C371.408 391.153 371.803 392.531 372.507 393.341C372.871 393.76 373.372 394.088 374.043 394.174C374.702 394.258 375.358 394.088 375.972 393.788C377.181 393.198 378.573 391.937 380.189 390.023C381.823 388.09 383.737 385.426 385.966 381.957C394.881 368.086 408.953 341.158 430.442 295.934C439.033 277.854 446.709 264.112 453.558 254.067C460.415 244.008 466.41 237.705 471.609 234.452C474.203 232.829 476.552 231.995 478.67 231.8C480.767 231.607 482.715 232.033 484.555 233.045C488.292 235.101 491.516 239.545 494.225 245.906C499.623 258.583 502.795 278.424 504.408 300.391C506.02 322.346 506.073 346.379 505.256 367.417L505.252 367.54L505.326 367.651C510.825 375.864 518.166 384.45 526.555 391.012C534.926 397.56 544.447 402.173 554.308 402.259C564.229 402.346 574.218 397.855 583.505 386.671C592.789 375.488 601.455 357.527 608.73 330.444C626.901 262.795 657.612 166.614 687.878 108.149C695.444 93.5337 702.972 81.2961 710.256 72.4565C713.898 68.0363 717.466 64.4817 720.932 61.907C724.404 59.3273 727.725 57.7676 730.865 57.2685C733.966 56.7759 736.975 57.3032 739.916 59.0336C742.883 60.7796 745.78 63.7525 748.551 68.1368C754.092 76.9032 759.03 91.1422 763.138 111.928C775.901 176.498 775.273 253.297 774.761 315.889C774.614 333.893 774.476 350.721 774.669 365.744C774.886 382.551 775.517 397.105 777.016 408.514C777.766 414.218 778.734 419.146 779.98 423.181C781.223 427.208 782.754 430.384 784.657 432.557C786.565 434.737 788.923 435.984 791.806 435.954C794.626 435.924 797.727 434.667 801.146 432.264C807.998 427.447 816.57 417.707 827.314 402.235C844.507 377.478 857.181 363.427 866.339 356.984C870.938 353.749 874.504 352.537 877.209 352.694C879.841 352.847 881.96 354.328 883.586 357.116C885.204 359.892 886.242 363.827 886.796 368.577C887.349 373.317 887.416 378.834 887.119 384.753C886.705 393 885.587 402.012 884.102 410.768C883.368 414.574 882.66 418.317 881.979 421.987M888.089 390.714C901.135 327.046 920.293 251.272 941.482 200.973C947.681 186.256 954.062 173.702 960.525 164.264C963.756 159.544 967.016 155.592 970.296 152.533C973.57 149.479 976.896 147.286 980.272 146.13C983.676 144.963 987.116 144.857 990.523 145.959C993.899 147.051 997.178 149.308 1000.37 152.77C1006.75 159.692 1012.95 171.611 1018.9 189.412C1042.79 260.93 1048.42 342.731 1052.84 407.125C1053.93 422.871 1054.94 437.577 1056.13 450.836C1057.64 467.715 1059.44 482.242 1062.04 493.599C1063.34 499.278 1064.84 504.152 1066.59 508.125C1068.35 512.104 1070.35 515.146 1072.63 517.186C1074.9 519.216 1077.42 520.224 1080.24 520.231C1083.1 520.238 1086.42 519.22 1090.3 516.95C1098.06 512.407 1107.71 503.044 1119.75 487.951C1125.78 480.392 1130.84 474.96 1135.06 471.351C1137.18 469.546 1139.09 468.185 1140.83 467.24C1142.57 466.299 1144.17 465.748 1145.64 465.612C1147.14 465.474 1148.46 465.773 1149.57 466.455C1150.66 467.124 1151.51 468.14 1152.19 469.409C1153.55 471.944 1154.28 475.657 1154.56 480.186C1155.65 497.811 1149.91 528.614 1145.22 553.75L1144.82 555.86C1142.44 568.63 1140.4 579.756 1139.76 586.715C1139.6 588.453 1139.52 589.921 1139.55 591.085C1139.59 592.265 1139.72 593.08 1139.94 593.544C1139.99 593.656 1140.04 593.733 1140.09 593.785C1140.1 593.805 1140.12 593.82 1140.13 593.83C1140.13 593.828 1140.14 593.827 1140.14 593.825C1140.27 593.782 1140.48 593.664 1140.79 593.401C1141.09 593.146 1141.43 592.787 1141.82 592.312C1143.4 590.402 1145.61 586.808 1148.6 581.179C1151.57 575.56 1155.3 567.941 1159.92 558.001C1169.15 538.126 1181.92 508.987 1199.29 468.033C1237.6 332.535 1270.88 257.821 1296.94 219.476C1309.96 200.321 1321.23 190.158 1330.52 186.07C1335.19 184.016 1339.42 183.473 1343.12 184.146C1346.81 184.818 1349.86 186.677 1352.25 189.25L1352.39 189.401L1352.37 189.582C1346.41 231.758 1340.93 289.378 1343.86 325.219C1344.59 334.179 1345.85 341.754 1347.74 347.379C1348.69 350.192 1349.79 352.497 1351.05 354.237C1352.31 355.984 1353.7 357.11 1355.18 357.644C1356.62 358.163 1358.25 358.158 1360.17 357.478C1362.11 356.788 1364.31 355.412 1366.78 353.222C1371.73 348.845 1377.6 341.358 1384.52 330.142C1401.79 302.129 1418.04 258.325 1433.17 211.653C1440.73 188.324 1448.01 164.289 1454.99 141.166L1455.81 138.464C1462.5 116.316 1468.91 95.0672 1475.05 76.1609C1481.43 56.4891 1487.51 39.3406 1493.28 26.346C1496.16 19.8493 1498.97 14.379 1501.71 10.1459C1504.43 5.93088 1507.12 2.87765 1509.81 1.28277C1511.16 0.478606 1512.56 0.0141522 1514 0.000318081C1515.45 -0.0136175 1516.83 0.430627 1518.12 1.27865C1520.66 2.948 1523.01 6.28292 1525.23 11.361C1529.7 21.5548 1533.8 39.1398 1537.55 65.7012C1548.67 144.44 1545.29 233.511 1542.51 307.099C1541.53 332.834 1540.63 356.676 1540.44 377.52C1540.26 397.639 1540.75 414.959 1542.48 428.5C1543.34 435.27 1544.52 441.085 1546.07 445.826C1547.62 450.576 1549.54 454.211 1551.87 456.651C1554.19 459.078 1556.86 460.277 1559.96 460.287C1563.11 460.296 1566.87 459.08 1571.34 456.367C1580.27 450.944 1591.66 439.777 1606.08 421.801C1634.86 385.923 1652.19 338.92 1663.15 291.474C1674.12 244.036 1678.71 196.201 1682.07 158.679C1682.25 156.676 1682.42 154.702 1682.59 152.759C1684.04 136.51 1685.29 122.425 1686.81 111.471C1687.66 105.34 1688.59 100.176 1689.69 96.1565C1690.78 92.1621 1692.06 89.2169 1693.65 87.5895C1694.45 86.768 1695.41 86.2083 1696.56 86.0961C1697.71 85.9835 1698.85 86.3403 1699.96 87.0222C1702.15 88.371 1704.59 91.2197 1707.38 95.6239C1712.98 104.472 1720.19 119.922 1729.64 143.286C1767.46 236.84 1761.54 362.585 1756.92 445.126C1756.79 447.41 1756.67 449.661 1756.54 451.877C1755.54 469.692 1754.66 485.265 1754.41 497.777C1754.26 504.81 1754.32 510.869 1754.65 515.81C1754.99 520.759 1755.6 524.554 1756.57 527.077C1757.06 528.342 1757.62 529.243 1758.23 529.808C1758.82 530.357 1759.42 530.552 1760.04 530.521C1760.72 530.487 1761.61 530.179 1762.72 529.441C1763.81 528.71 1765.05 527.608 1766.46 526.096C1772.05 520.054 1779.86 507.817 1790.56 488.164C1759.45 391.842 1806.67 312.065 1853.86 272.141C1865.66 262.153 1877.49 254.643 1888.11 249.993C1898.69 245.356 1908.22 243.503 1915.35 245.02C1922.6 246.559 1927.1 251.491 1927.83 259.857C1928.56 268.214 1925.57 280.13 1917.69 295.941C1886.26 359.064 1840.69 469.422 1816.25 538.566C1810.14 555.851 1805.35 570.553 1802.44 581.294C1800.98 586.666 1799.99 591.036 1799.54 594.239C1799.31 595.841 1799.22 597.138 1799.27 598.115C1799.29 598.603 1799.35 599.001 1799.44 599.31C1799.53 599.627 1799.64 599.818 1799.74 599.921C1799.78 599.969 1799.81 599.987 1799.83 599.993C1799.83 599.997 1799.84 599.998 1799.85 599.998C1799.88 600 1800.01 599.993 1800.28 599.86C1800.82 599.592 1801.57 598.981 1802.55 597.93C1804.48 595.851 1807.11 592.26 1810.49 586.96C1817.25 576.371 1826.99 559.057 1840.25 533.627C1882.72 452.231 1916.4 407.489 1941.29 384.634C1953.72 373.213 1964.01 367.208 1972.17 364.857C1976.25 363.68 1979.83 363.412 1982.88 363.864C1985.83 364.303 1988.24 365.413 1990.09 366.958L2370 401.512L2369.83 402.506L1989.38 367.904L1989.21 367.753C1987.52 366.287 1985.32 365.25 1982.6 364.846C1979.87 364.441 1976.57 364.665 1972.67 365.789C1964.85 368.043 1954.74 373.885 1942.36 385.257C1917.61 407.988 1883.99 452.613 1841.54 533.983C1828.27 559.418 1818.52 576.76 1811.73 587.383C1808.35 592.689 1805.69 596.342 1803.69 598.492C1802.7 599.556 1801.82 600.306 1801.05 600.688C1800.66 600.88 1800.22 601.021 1799.75 600.997C1799.25 600.972 1798.86 600.764 1798.6 600.488C1798.36 600.227 1798.2 599.887 1798.09 599.511C1797.99 599.129 1797.92 598.672 1797.9 598.15C1797.85 597.107 1797.94 595.759 1798.17 594.136C1798.63 590.888 1799.63 586.482 1801.09 581.1C1804.01 570.331 1808.81 555.608 1814.92 538.316C1839.37 469.148 1884.95 358.759 1916.4 295.599C1924.25 279.839 1927.17 268.076 1926.46 259.92C1925.74 251.772 1921.43 247.355 1914.97 245.981C1908.4 244.585 1899.31 246.256 1888.81 250.851C1878.35 255.432 1866.64 262.862 1854.9 272.794C1807.94 312.527 1760.85 392.046 1791.95 488.088L1792 488.241L1791.92 488.387C1781.18 508.113 1773.3 520.495 1767.59 526.657C1766.16 528.2 1764.85 529.374 1763.64 530.18C1762.45 530.977 1761.28 531.464 1760.14 531.52C1758.94 531.579 1757.94 531.16 1757.15 530.428C1756.37 529.711 1755.75 528.662 1755.25 527.347C1754.24 524.711 1753.61 520.822 1753.28 515.859C1752.94 510.887 1752.89 504.804 1753.03 497.762C1753.29 485.235 1754.17 469.647 1755.17 451.835C1755.29 449.619 1755.42 447.368 1755.55 445.085C1760.16 362.506 1766.07 236.935 1728.32 143.569C1718.87 120.202 1711.69 104.817 1706.13 96.0437C1703.34 91.6371 1701.01 88.9782 1699.07 87.7876C1698.11 87.1998 1697.35 87.0289 1696.74 87.0888C1696.13 87.149 1695.46 87.4619 1694.77 88.1712C1693.36 89.6054 1692.13 92.3546 1691.04 96.3523C1689.95 100.325 1689.02 105.451 1688.17 111.572C1686.66 122.507 1685.41 136.573 1683.96 152.828C1683.79 154.769 1683.62 156.742 1683.44 158.744C1680.08 196.266 1675.49 244.146 1664.51 291.64C1653.53 339.127 1636.17 386.273 1607.27 422.307C1592.84 440.287 1581.35 451.592 1572.22 457.137C1567.65 459.908 1563.58 461.3 1559.95 461.289C1556.28 461.277 1553.23 459.827 1550.74 457.223C1548.27 454.632 1546.3 450.855 1544.73 446.059C1543.16 441.254 1541.98 435.389 1541.11 428.592C1539.37 415 1538.88 397.64 1539.07 377.513C1539.25 356.631 1540.16 332.762 1541.13 307.009C1543.92 233.433 1547.29 144.471 1536.18 65.8037C1532.43 39.2457 1528.34 21.7518 1523.92 11.6656C1521.7 6.60369 1519.44 3.49834 1517.2 2.02195C1516.1 1.2971 1515.04 0.992098 1514.02 1.0019C1512.99 1.0118 1511.88 1.34406 1510.67 2.05894C1508.25 3.50214 1505.66 6.37631 1502.95 10.5728C1500.25 14.7512 1497.46 20.1764 1494.59 26.6542C1488.84 39.6086 1482.77 56.7247 1476.39 76.3914C1470.25 95.2952 1463.83 116.544 1457.14 138.702L1456.33 141.382" fill="#D7C3C3"/>
</svg>
